<?xml version="1.0" encoding="UTF-8" standalone="no"?>
<!DOCTYPE svg PUBLIC "-//W3C//DTD SVG 1.1//EN" "http://www.w3.org/Graphics/SVG/1.1/DTD/svg11.dtd">
<svg width="100%" height="100%" viewBox="0 0 758 724" version="1.1" xmlns="http://www.w3.org/2000/svg" xmlns:xlink="http://www.w3.org/1999/xlink" xml:space="preserve" xmlns:serif="http://www.serif.com/" style="fill-rule:evenodd;clip-rule:evenodd;stroke-linecap:round;stroke-linejoin:round;stroke-miterlimit:1.5;">
    <g transform="matrix(1,0,0,1,-246.085,-259.586)">
        <g>
            <g transform="matrix(1.178,0,0,1,-71.4892,-40.1048)">
                <path d="M514.612,329.004C514.612,313.102 503.652,300.191 490.152,300.191L294.473,300.191C280.973,300.191 270.013,313.102 270.013,329.004L270.013,994.058C270.013,1009.96 280.973,1022.87 294.473,1022.87L490.152,1022.87C503.652,1022.87 514.612,1009.96 514.612,994.058L514.612,329.004Z" style="fill:white;stroke:white;stroke-width:0.92px;"/>
            </g>
            <g transform="matrix(1.178,0,0,1,397.203,-40.1048)">
                <path d="M514.612,331.886C514.612,314.393 502.556,300.191 487.706,300.191L296.919,300.191C282.069,300.191 270.013,314.393 270.013,331.886L270.013,991.176C270.013,1008.67 282.069,1022.87 296.919,1022.87L487.706,1022.87C502.556,1022.87 514.612,1008.67 514.612,991.176L514.612,331.886Z" style="fill:white;stroke:white;stroke-width:0.92px;"/>
            </g>
        </g>
    </g>
</svg>
