<?xml version="1.0" encoding="UTF-8" standalone="no"?>
<!DOCTYPE svg PUBLIC "-//W3C//DTD SVG 1.1//EN" "http://www.w3.org/Graphics/SVG/1.1/DTD/svg11.dtd">
<svg width="100%" height="100%" viewBox="0 0 789 753" version="1.1" xmlns="http://www.w3.org/2000/svg" xmlns:xlink="http://www.w3.org/1999/xlink" xml:space="preserve" xmlns:serif="http://www.serif.com/" style="fill-rule:evenodd;clip-rule:evenodd;stroke-linecap:round;stroke-linejoin:round;stroke-miterlimit:1.5;">
    <g transform="matrix(1,0,0,1,-246.085,-243.703)">
        <g transform="matrix(1.23838e-16,2.02244,-1.96627,1.20399e-16,1614.48,-176.603)">
            <path d="M383.596,317.621C385.492,313.537 389.501,310.937 393.901,310.937C398.301,310.937 402.31,313.537 404.206,317.621C437.629,389.609 542.56,615.614 571.99,679.002C573.667,682.614 573.425,686.857 571.35,690.242C569.274,693.627 565.656,695.68 561.765,695.68C498.868,695.68 289.026,695.68 226.073,695.68C222.175,695.68 218.549,693.623 216.469,690.231C214.39,686.839 214.147,682.587 215.827,678.969C245.279,615.534 350.179,389.597 383.596,317.621Z" style="fill:white;stroke:white;stroke-width:0.5px;"/>
        </g>
    </g>
</svg>
